# xmcd
#
# Track frame offsets:
#	150
#	20965
#	63480
#	81025
#	98088
#	117945
#	136423
#	157475
#	185163
#	211513
#
# Disc length: 3057
#
# Revision: 3
# Processed by: cddbd v1.5.1PL0 Copyright (c) Steve Scherf et al.
# Submitted via: MusicManager v6.1.1.0
# Normalized: r2:DSETVAR1
#
DISCID=8f0bef0a
DTITLE=Various Artist - Nasty Blues
DYEAR=1989
DGENRE=blues
TTITLE0=Clarence Carter - Strokin'
TTITLE1=Trudy Lynn - Trudy Sings The Blues
TTITLE2=Chick Willis - I Want To Play With Your Poodle
TTITLE3=Artie White - Rainy Day
TTITLE4=Gary B.B. Coleman - One Eyed Woman
TTITLE5=Chick Willis - I Want A Big Fat Woman
TTITLE6=Little Johnny Taylor - Ugly Man
TTITLE7=Gary B.B. Coleman - Watch Where You Stroke
TTITLE8=Travis Haddix - Two Heads Are Better Than One
TTITLE9=Clarence Carter - Why Do I Stay Here And Take This Shit From You
EXTD=
EXTT0=
EXTT1=
EXTT2=
EXTT3=
EXTT4=
EXTT5=
EXTT6=
EXTT7=
EXTT8=
EXTT9=
PLAYORDER=
